# xmcd
#
# Track frame offsets:
#	150
#	18124
#	32489
#	46382
#
# Disc length: 959 seconds
#
# Revision: 1
# Processed by: cddbd v1.5.2PL0 Copyright (c) Steve Scherf et al.
# Submitted via: audiograbber 1.83.01
#
DISCID=2203bd04
DTITLE=Heidi Kyrö - Uutta, Vanhaa - Ja Jotain Sinistä [CDM-Promo)) 
DYEAR=2013
DGENRE=Pop
TTITLE0=Tiibetin Hiekkaa
TTITLE1=Sun Suomineitos Oon (Juhlaversio 2013)
TTITLE2=270 Päivää
TTITLE3=H. K. Disco Medley
EXTD=TR.
EXTT0=
EXTT1=
EXTT2=
EXTT3=
PLAYORDER=
